<?xml version="1.0" standalone="no"?>
<!DOCTYPE svg PUBLIC "-//W3C//DTD SVG 1.1//EN" "http://www.w3.org/Graphics/SVG/1.1/DTD/svg11.dtd">
<svg width="182mm" height="132mm" viewBox="-91 -66 182 132" xmlns="http://www.w3.org/2000/svg" version="1.1">
<title>OpenSCAD Model</title>
<path d="
M -90,64.8 L -89.9975,64.8313 L -89.9902,64.8618 L -89.9782,64.8908 L -89.9618,64.9176 L -89.9414,64.9414
 L -89.9176,64.9618 L -89.8908,64.9782 L -89.8618,64.9902 L -89.8313,64.9975 L -89.8,65 L 89.8,65
 L 89.8313,64.9975 L 89.8618,64.9902 L 89.8908,64.9782 L 89.9176,64.9618 L 89.9414,64.9414 L 89.9618,64.9176
 L 89.9782,64.8908 L 89.9902,64.8618 L 89.9975,64.8313 L 90,64.8 L 90,-64.8 L 89.9975,-64.8313
 L 89.9902,-64.8618 L 89.9782,-64.8908 L 89.9618,-64.9176 L 89.9414,-64.9414 L 89.9176,-64.9618 L 89.8908,-64.9782
 L 89.8618,-64.9902 L 89.8313,-64.9975 L 89.8,-65 L -89.8,-65 L -89.8313,-64.9975 L -89.8618,-64.9902
 L -89.8908,-64.9782 L -89.9176,-64.9618 L -89.9414,-64.9414 L -89.9618,-64.9176 L -89.9782,-64.8908 L -89.9902,-64.8618
 L -89.9975,-64.8313 L -90,-64.8 z
" stroke="black" fill="none" stroke-width="0.35"/>
</svg>
